# Blender v2.82 (sub 7) OBJ File: 'Bin.blend'
# www.blender.org
mtllib Bin.mtl
o Cube
v 2.000000 2.000000 -2.000000
v 2.000000 -1.000000 -2.000000
v 2.000000 2.000000 2.000000
v 2.000000 -1.000000 2.000000
v 1.000000 2.000000 2.000000
v 1.000000 -1.000000 -2.000000
v 1.000000 2.000000 -2.000000
v 1.000000 -1.000000 2.000000
v 1.000000 -1.000000 0.000000
v 2.000000 2.000000 0.000000
v 2.000000 -1.000000 0.000000
v 0.576493 1.389252 2.000000
v 0.576493 1.020675 2.000000
v 1.500000 2.000000 2.000000
v 1.500000 -1.000000 2.000000
v 1.500000 -1.000000 -2.000000
v 1.500000 2.000000 -2.000000
v 1.500000 2.000000 0.000000
v 1.500000 -1.000000 0.000000
v 2.000000 -1.000000 -1.600000
v 1.000000 -1.000000 -1.600000
v 1.000000 2.000000 -1.600000
v 2.000000 2.000000 -1.600000
v 1.500000 -1.000000 -1.600000
v 1.500000 2.000000 -1.600000
v 1.000000 -1.000000 1.600000
v 1.000000 2.000000 1.600000
v 2.000000 2.000000 1.600000
v 2.000000 -1.000000 1.600000
v 1.500000 2.000000 1.600000
v 1.500000 -1.000000 1.600000
v -2.000000 2.000000 -2.000000
v -2.000000 -1.000000 -2.000000
v -2.000000 2.000000 2.000000
v -2.000000 -1.000000 2.000000
v -1.000000 2.000000 2.000000
v -1.000000 -1.000000 -2.000000
v -1.000000 2.000000 -2.000000
v -1.000000 -1.000000 2.000000
v 0.000000 -1.000000 -2.000000
v 0.000000 2.000000 2.000000
v 0.000000 -1.000000 2.000000
v 0.000000 2.000000 -2.000000
v -1.000000 -1.000000 0.000000
v -2.000000 2.000000 0.000000
v -2.000000 -1.000000 0.000000
v 0.000000 -1.000000 0.000000
v 0.000000 1.389252 2.000000
v 0.000000 1.020675 2.000000
v -0.576493 1.389252 2.000000
v -0.576493 1.020675 2.000000
v -1.500000 2.000000 2.000000
v -1.500000 -1.000000 2.000000
v -1.500000 -1.000000 -2.000000
v -1.500000 2.000000 -2.000000
v -1.500000 2.000000 0.000000
v -1.500000 -1.000000 0.000000
v -2.000000 -1.000000 -1.600000
v -1.000000 -1.000000 -1.600000
v -1.000000 2.000000 -1.600000
v -2.000000 2.000000 -1.600000
v 0.000000 -1.000000 -1.600000
v 0.000000 2.000000 -1.600000
v -1.500000 -1.000000 -1.600000
v -1.500000 2.000000 -1.600000
v -1.000000 -1.000000 1.600000
v -1.000000 2.000000 1.600000
v -2.000000 2.000000 1.600000
v 0.000000 -1.000000 1.600000
v 0.000000 2.000000 1.600000
v -2.000000 -1.000000 1.600000
v -1.500000 2.000000 1.600000
v -1.500000 -1.000000 1.600000
vt 0.250000 0.725000
vt 0.312500 0.725000
vt 0.312500 0.750000
vt 0.250000 0.750000
vt 0.375000 0.375000
vt 0.625000 0.375000
vt 0.625000 0.437500
vt 0.375000 0.437500
vt 0.343750 0.725000
vt 0.375000 0.725000
vt 0.375000 0.750000
vt 0.343750 0.750000
vt 0.625000 0.725000
vt 0.625000 0.750000
vt 0.375000 0.468750
vt 0.625000 0.468750
vt 0.625000 0.500000
vt 0.375000 0.500000
vt 0.375000 0.781250
vt 0.625000 0.781250
vt 0.625000 0.812500
vt 0.375000 0.812500
vt 0.656250 0.725000
vt 0.687500 0.725000
vt 0.687500 0.750000
vt 0.656250 0.750000
vt 0.625000 0.875000
vt 0.586828 0.875000
vt 0.586828 0.838969
vt 0.563792 0.838969
vt 0.563792 0.875000
vt 0.375000 0.875000
vt 0.750000 0.725000
vt 0.750000 0.750000
vt 0.375000 0.525000
vt 0.625000 0.525000
vt 0.625000 0.625000
vt 0.375000 0.625000
vt 0.343750 0.525000
vt 0.343750 0.625000
vt 0.250000 0.525000
vt 0.312500 0.525000
vt 0.312500 0.625000
vt 0.250000 0.625000
vt 0.656250 0.525000
vt 0.656250 0.625000
vt 0.656250 0.500000
vt 0.312500 0.500000
vt 0.343750 0.500000
vt 0.250000 0.500000
vt 0.687500 0.500000
vt 0.687500 0.525000
vt 0.750000 0.500000
vt 0.750000 0.525000
vt 0.312500 0.750000
vt 0.312500 0.725000
vt 0.375000 0.437500
vt 0.625000 0.437500
vt 0.343750 0.725000
vt 0.343750 0.750000
vt 0.375000 0.750000
vt 0.375000 0.725000
vt 0.625000 0.750000
vt 0.625000 0.725000
vt 0.375000 0.468750
vt 0.375000 0.500000
vt 0.625000 0.500000
vt 0.625000 0.468750
vt 0.375000 0.781250
vt 0.375000 0.812500
vt 0.625000 0.812500
vt 0.625000 0.781250
vt 0.656250 0.725000
vt 0.656250 0.750000
vt 0.687500 0.750000
vt 0.687500 0.725000
vt 0.563792 0.838969
vt 0.586828 0.838969
vt 0.375000 0.525000
vt 0.375000 0.625000
vt 0.625000 0.625000
vt 0.625000 0.525000
vt 0.343750 0.525000
vt 0.343750 0.625000
vt 0.312500 0.625000
vt 0.312500 0.525000
vt 0.656250 0.625000
vt 0.656250 0.525000
vt 0.656250 0.500000
vt 0.312500 0.500000
vt 0.343750 0.500000
vt 0.687500 0.525000
vt 0.687500 0.500000
vn 0.0000 -1.0000 0.0000
vn 0.0000 0.0000 -1.0000
vn 1.0000 0.0000 0.0000
vn 0.0000 0.0000 1.0000
vn 0.0000 1.0000 0.0000
vn -1.0000 0.0000 0.0000
usemtl Material
s off
f 69/1/1 26/2/1 8/3/1 42/4/1
f 40/5/2 43/6/2 7/7/2 6/8/2
f 31/9/1 29/10/1 4/11/1 15/12/1
f 29/10/3 28/13/3 3/14/3 4/11/3
f 16/15/2 17/16/2 1/17/2 2/18/2
f 15/19/4 14/20/4 5/21/4 8/22/4
f 30/23/5 27/24/5 5/25/5 14/26/5
f 8/22/4 5/21/4 41/27/4 48/28/4 12/29/4 13/30/4 49/31/4 42/32/4
f 27/24/5 70/33/5 41/34/5 5/25/5
f 20/35/3 23/36/3 10/37/3 11/38/3
f 24/39/1 20/35/1 11/38/1 19/40/1
f 62/41/1 21/42/1 9/43/1 47/44/1
f 21/42/1 24/39/1 19/40/1 9/43/1
f 23/36/5 25/45/5 18/46/5 10/37/5
f 28/13/5 30/23/5 14/26/5 3/14/5
f 4/11/4 3/14/4 14/20/4 15/19/4
f 6/8/2 7/7/2 17/16/2 16/15/2
f 26/2/1 31/9/1 15/12/1 8/3/1
f 1/17/5 17/47/5 25/45/5 23/36/5
f 6/48/1 16/49/1 24/39/1 21/42/1
f 40/50/1 6/48/1 21/42/1 62/41/1
f 16/49/1 2/18/1 20/35/1 24/39/1
f 2/18/3 1/17/3 23/36/3 20/35/3
f 17/47/5 7/51/5 22/52/5 25/45/5
f 7/51/5 43/53/5 63/54/5 22/52/5
f 9/43/1 19/40/1 31/9/1 26/2/1
f 10/37/5 18/46/5 30/23/5 28/13/5
f 11/38/3 10/37/3 28/13/3 29/10/3
f 19/40/1 11/38/1 29/10/1 31/9/1
f 47/44/1 9/43/1 26/2/1 69/1/1
f 69/1/1 42/4/1 39/55/1 66/56/1
f 40/5/2 37/57/2 38/58/2 43/6/2
f 73/59/1 53/60/1 35/61/1 71/62/1
f 71/62/6 35/61/6 34/63/6 68/64/6
f 54/65/2 33/66/2 32/67/2 55/68/2
f 53/69/4 39/70/4 36/71/4 52/72/4
f 72/73/5 52/74/5 36/75/5 67/76/5
f 39/70/4 42/32/4 49/31/4 51/77/4 50/78/4 48/28/4 41/27/4 36/71/4
f 67/76/5 36/75/5 41/34/5 70/33/5
f 58/79/6 46/80/6 45/81/6 61/82/6
f 64/83/1 57/84/1 46/80/1 58/79/1
f 62/41/1 47/44/1 44/85/1 59/86/1
f 59/86/1 44/85/1 57/84/1 64/83/1
f 61/82/5 45/81/5 56/87/5 65/88/5
f 68/64/5 34/63/5 52/74/5 72/73/5
f 35/61/4 53/69/4 52/72/4 34/63/4
f 37/57/2 54/65/2 55/68/2 38/58/2
f 66/56/1 39/55/1 53/60/1 73/59/1
f 32/67/5 61/82/5 65/88/5 55/89/5
f 37/90/1 59/86/1 64/83/1 54/91/1
f 40/50/1 62/41/1 59/86/1 37/90/1
f 54/91/1 64/83/1 58/79/1 33/66/1
f 33/66/6 58/79/6 61/82/6 32/67/6
f 55/89/5 65/88/5 60/92/5 38/93/5
f 38/93/5 60/92/5 63/54/5 43/53/5
f 44/85/1 66/56/1 73/59/1 57/84/1
f 45/81/5 68/64/5 72/73/5 56/87/5
f 46/80/6 71/62/6 68/64/6 45/81/6
f 57/84/1 73/59/1 71/62/1 46/80/1
f 47/44/1 69/1/1 66/56/1 44/85/1
