# Blender v2.82 (sub 7) OBJ File: 'Log.blend'
# www.blender.org
mtllib Log.mtl
o Cylinder
v 0.000000 -2.800000 -0.700000
v 0.000000 2.800000 -0.700000
v 0.411450 -2.800000 -0.566312
v 0.411450 2.800000 -0.566312
v 0.665740 -2.800000 -0.216312
v 0.665740 2.800000 -0.216312
v 0.665740 -2.800000 0.216312
v 0.665740 2.800000 0.216312
v 0.411450 -2.800000 0.566312
v 0.411450 2.800000 0.566312
v -0.000000 -2.800000 0.700000
v -0.000000 2.800000 0.700000
v -0.411450 -2.800000 0.566312
v -0.411450 2.800000 0.566312
v -0.665740 -2.800000 0.216312
v -0.665740 2.800000 0.216312
v -0.665740 -2.800000 -0.216312
v -0.665740 2.800000 -0.216312
v -0.411449 -2.800000 -0.566312
v -0.411449 2.800000 -0.566312
v -0.000000 2.710160 -0.715251
v 0.420414 2.710160 -0.578650
v 0.680244 2.710160 -0.221025
v 0.680244 2.710160 0.221025
v 0.420414 2.710160 0.578650
v -0.000000 2.710160 0.715251
v -0.420414 2.710160 0.578650
v -0.680244 2.710160 0.221025
v -0.680244 2.710160 -0.221025
v -0.420414 2.710160 -0.578650
v 0.417546 -2.721526 -0.574702
v 0.675603 -2.721526 -0.219517
v 0.675603 -2.721526 0.219517
v 0.417545 -2.721526 0.574702
v -0.000000 -2.721526 0.710371
v -0.417546 -2.721526 0.574702
v -0.675603 -2.721526 0.219517
v -0.675603 -2.721526 -0.219517
v -0.417545 -2.721526 -0.574702
v -0.000000 -2.721526 -0.710371
vt 1.000000 0.991979
vt 1.000000 1.000000
vt 0.900000 1.000000
vt 0.900000 0.991979
vt 0.800000 1.000000
vt 0.800000 0.991979
vt 0.700000 1.000000
vt 0.700000 0.991979
vt 0.600000 1.000000
vt 0.600000 0.991979
vt 0.500000 1.000000
vt 0.500000 0.991979
vt 0.400000 1.000000
vt 0.400000 0.991979
vt 0.300000 1.000000
vt 0.300000 0.991979
vt 0.200000 1.000000
vt 0.200000 0.991979
vt 0.391068 0.444164
vt 0.250000 0.490000
vt 0.108932 0.444164
vt 0.021746 0.324164
vt 0.021746 0.175836
vt 0.108932 0.055836
vt 0.250000 0.010000
vt 0.391068 0.055836
vt 0.478254 0.175836
vt 0.478254 0.324164
vt 0.100000 1.000000
vt 0.100000 0.991979
vt -0.000000 1.000000
vt -0.000000 0.991979
vt 0.750000 0.490000
vt 0.891068 0.444164
vt 0.978254 0.324164
vt 0.978254 0.175836
vt 0.891068 0.055836
vt 0.750000 0.010000
vt 0.608932 0.055836
vt 0.521746 0.175836
vt 0.521746 0.324164
vt 0.608932 0.444164
vt 0.100000 0.507007
vt -0.000000 0.507007
vt 0.200000 0.507007
vt 0.300000 0.507007
vt 0.400000 0.507007
vt 0.500000 0.507007
vt 0.600000 0.507007
vt 0.700000 0.507007
vt 0.800000 0.507007
vt 0.900000 0.507007
vt 1.000000 0.507007
vt 1.000000 0.500000
vt 0.900000 0.500000
vt 0.800000 0.500000
vt 0.700000 0.500000
vt 0.600000 0.500000
vt 0.500000 0.500000
vt 0.400000 0.500000
vt 0.300000 0.500000
vt 0.200000 0.500000
vt 0.100000 0.500000
vt -0.000000 0.500000
vn 0.3051 0.1594 -0.9389
vn 0.7987 0.1594 -0.5803
vn 0.9872 0.1594 0.0000
vn 0.7987 0.1594 0.5803
vn 0.3051 0.1594 0.9389
vn -0.3051 0.1594 0.9389
vn -0.7987 0.1594 0.5803
vn -0.9872 0.1594 0.0000
vn 0.0000 1.0000 0.0000
vn -0.7987 0.1594 -0.5803
vn -0.3051 0.1594 -0.9389
vn 0.0000 -1.0000 0.0000
vn -0.3090 -0.0009 -0.9511
vn -0.8090 -0.0009 -0.5878
vn -1.0000 -0.0009 0.0000
vn -0.8090 -0.0009 0.5878
vn -0.3090 -0.0009 0.9511
vn 0.3090 -0.0009 0.9511
vn 0.8090 -0.0009 0.5878
vn 1.0000 -0.0009 0.0000
vn 0.8090 -0.0009 -0.5878
vn 0.3090 -0.0009 -0.9511
vn 0.3066 -0.1247 -0.9436
vn 0.8027 -0.1247 -0.5832
vn 0.9922 -0.1247 0.0000
vn 0.8027 -0.1247 0.5832
vn 0.3066 -0.1247 0.9436
vn -0.3066 -0.1247 0.9436
vn -0.8027 -0.1247 0.5832
vn -0.9922 -0.1247 0.0000
vn -0.8027 -0.1247 -0.5832
vn -0.3066 -0.1247 -0.9436
usemtl None
s off
f 21/1/1 2/2/1 4/3/1 22/4/1
f 22/4/2 4/3/2 6/5/2 23/6/2
f 23/6/3 6/5/3 8/7/3 24/8/3
f 24/8/4 8/7/4 10/9/4 25/10/4
f 25/10/5 10/9/5 12/11/5 26/12/5
f 26/12/6 12/11/6 14/13/6 27/14/6
f 27/14/7 14/13/7 16/15/7 28/16/7
f 28/16/8 16/15/8 18/17/8 29/18/8
f 4/19/9 2/20/9 20/21/9 18/22/9 16/23/9 14/24/9 12/25/9 10/26/9 8/27/9 6/28/9
f 29/18/10 18/17/10 20/29/10 30/30/10
f 30/30/11 20/29/11 2/31/11 21/32/11
f 1/33/12 3/34/12 5/35/12 7/36/12 9/37/12 11/38/12 13/39/12 15/40/12 17/41/12 19/42/12
f 39/43/13 30/30/13 21/32/13 40/44/13
f 38/45/14 29/18/14 30/30/14 39/43/14
f 37/46/15 28/16/15 29/18/15 38/45/15
f 36/47/16 27/14/16 28/16/16 37/46/16
f 35/48/17 26/12/17 27/14/17 36/47/17
f 34/49/18 25/10/18 26/12/18 35/48/18
f 33/50/19 24/8/19 25/10/19 34/49/19
f 32/51/20 23/6/20 24/8/20 33/50/20
f 31/52/21 22/4/21 23/6/21 32/51/21
f 40/53/22 21/1/22 22/4/22 31/52/22
f 1/54/23 40/53/23 31/52/23 3/55/23
f 3/55/24 31/52/24 32/51/24 5/56/24
f 5/56/25 32/51/25 33/50/25 7/57/25
f 7/57/26 33/50/26 34/49/26 9/58/26
f 9/58/27 34/49/27 35/48/27 11/59/27
f 11/59/28 35/48/28 36/47/28 13/60/28
f 13/60/29 36/47/29 37/46/29 15/61/29
f 15/61/30 37/46/30 38/45/30 17/62/30
f 17/62/31 38/45/31 39/43/31 19/63/31
f 19/63/32 39/43/32 40/44/32 1/64/32
