# Blender v2.80 (sub 75) OBJ File: 'Tomato (Crop).blend'
# www.blender.org
mtllib Tomato (Crop).mtl
o Sphere
v 0.000000 0.671890 -0.500000
v 0.135951 -0.375619 -0.798019
v -0.000000 0.805865 -0.000000
v 0.445685 0.671890 -0.353553
v 0.758574 0.426471 -0.590256
v 0.819083 0.008864 -0.610583
v 0.778274 -0.428713 -0.565167
v 0.445685 -0.695647 -0.353553
v 0.630294 0.671890 -0.000000
v 1.052889 0.397846 0.034070
v 1.094186 -0.003459 0.023463
v 1.052233 -0.402914 0.002125
v 0.630294 -0.695647 -0.000000
v 0.445685 0.671890 0.353553
v 0.825407 0.429784 0.533355
v 0.930259 0.019523 0.543560
v 0.817722 -0.445999 0.550931
v 0.445685 -0.695647 0.353553
v 0.000000 -0.829622 -0.000000
v -0.000000 0.671890 0.500000
v 0.005444 0.429522 0.821628
v 0.026264 0.011601 0.933605
v 0.006403 -0.448406 0.872142
v -0.000000 -0.695647 0.500000
v -0.445685 0.671890 0.353553
v -0.771950 0.500000 0.612372
v -0.891371 -0.000000 0.707106
v -0.772519 -0.447165 0.613240
v -0.445685 -0.695647 0.353553
v -0.630294 0.671890 -0.000000
v -1.091702 0.500000 -0.000000
v -1.260588 -0.000000 -0.000000
v -1.094307 -0.441928 -0.004630
v -0.630294 -0.695647 -0.000000
v -0.445685 0.671890 -0.353553
v -0.771950 0.500000 -0.612372
v -0.891371 -0.000000 -0.707107
v -0.766679 -0.423407 -0.620711
v -0.445685 -0.695647 -0.353553
v 0.060777 0.463253 -0.849894
v 0.090509 0.012925 -0.947371
v -0.000000 -0.695647 -0.500000
v -0.000000 0.751922 -0.594605
v 0.464881 0.751922 -0.370730
v 0.579697 0.751922 0.132312
v 0.257990 0.751922 0.535721
v -0.257990 0.811015 0.535721
v -0.579697 0.751922 0.132312
v -0.464881 0.751922 -0.370730
v -0.254616 0.751922 0.535721
v -0.259772 0.751922 0.533486
v -0.321708 0.811015 -0.191197
v 0.178534 0.751922 -0.370730
v 0.019087 0.802195 0.039994
v -0.000072 0.811015 0.212122
v 0.115337 0.811015 0.356841
v -0.114874 0.811015 0.356160
v -0.167391 0.811015 0.132312
v -0.043914 0.802195 0.009405
v -0.019520 0.802195 0.039994
v -0.092727 0.811015 -0.191926
v -0.051553 0.811015 -0.370730
v -0.178535 0.751922 -0.370730
v 0.051098 0.811015 -0.370730
v 0.034597 0.802195 -0.027992
v 0.043212 0.802195 0.009752
v 0.206967 0.811015 -0.047416
v 0.207041 0.751922 0.312500
v 0.001169 0.751922 0.412043
v -0.208550 0.811015 0.311047
v -0.259213 0.751922 0.531059
v -0.321930 0.751922 0.256446
v -0.350280 0.811015 0.132312
v 0.165914 0.811015 0.132312
v 0.321686 0.751922 -0.191224
v 0.092075 0.811015 -0.191197
v -0.000085 0.802195 -0.044715
v -0.035363 0.802195 -0.027726
v -0.257856 0.811015 -0.271264
v -0.372961 0.811015 0.032753
v 0.257989 0.811015 -0.271097
v -0.206892 0.811015 -0.047222
v -0.401256 0.751922 -0.091447
vt 0.750000 0.166667
vt 0.750000 0.333333
vt 0.625000 0.333333
vt 0.625000 0.166667
vt 0.750000 0.500000
vt 0.750000 0.666667
vt 0.625000 0.666667
vt 0.625000 0.500000
vt 0.750000 0.833333
vt 0.687500 1.000000
vt 0.625000 0.833333
vt 0.687500 0.000000
vt 0.500000 0.333333
vt 0.500000 0.166667
vt 0.500000 0.666667
vt 0.500000 0.500000
vt 0.562500 1.000000
vt 0.500000 0.833333
vt 0.562500 0.000000
vt 0.375000 0.666667
vt 0.375000 0.500000
vt 0.437500 1.000000
vt 0.375000 0.833333
vt 0.437500 0.000000
vt 0.375000 0.166667
vt 0.375000 0.333333
vt 0.312500 1.000000
vt 0.250000 0.833333
vt 0.312500 0.000000
vt 0.250000 0.166667
vt 0.250000 0.500000
vt 0.250000 0.333333
vt 0.250000 0.666667
vt 0.187500 0.000000
vt 0.125000 0.166667
vt 0.125000 0.500000
vt 0.125000 0.333333
vt 0.125000 0.833333
vt 0.125000 0.666667
vt 0.187500 1.000000
vt 0.062500 0.000000
vt 0.000000 0.166667
vt 0.000000 0.500000
vt 0.000000 0.333333
vt 0.000000 0.833333
vt 0.000000 0.666667
vt 0.062500 1.000000
vt 0.937500 0.000000
vt 1.000000 0.166667
vt 0.875000 0.166667
vt 1.000000 0.333333
vt 1.000000 0.500000
vt 0.875000 0.500000
vt 0.875000 0.333333
vt 1.000000 0.666667
vt 1.000000 0.833333
vt 0.875000 0.833333
vt 0.875000 0.666667
vt 0.937500 1.000000
vt 0.812500 1.000000
vt 0.812500 0.000000
vt 0.750000 0.490000
vt 0.677938 0.399637
vt 0.562360 0.399638
vt 0.588042 0.286908
vt 0.516017 0.196595
vt 0.620060 0.146491
vt 0.645374 0.035649
vt 0.645148 0.034670
vt 0.645868 0.033767
vt 0.703633 0.106243
vt 0.750472 0.083687
vt 0.647230 0.033767
vt 0.854132 0.033767
vt 0.833568 0.123866
vt 0.983983 0.196595
vt 0.879842 0.327185
vt 0.937640 0.399638
vt 0.822062 0.399638
vt 0.854133 0.359424
vt 0.833537 0.269138
vt 0.796313 0.287088
vt 0.787164 0.327173
vt 0.750150 0.309347
vt 0.807780 0.236849
vt 0.775669 0.196595
vt 0.724282 0.196596
vt 0.691812 0.237309
vt 0.703193 0.286734
vt 0.666493 0.269061
vt 0.682436 0.196595
vt 0.608617 0.196595
vt 0.599462 0.236778
vt 0.620149 0.327174
vt 0.645922 0.359491
vt 0.729192 0.399639
vt 0.712573 0.327467
vt 0.770625 0.399637
vt 0.665823 0.124453
vt 0.749971 0.164382
vt 0.816967 0.196595
vt 0.796555 0.105969
vn 0.1942 -0.7269 -0.6587
vn 0.3846 0.1633 -0.9085
vn 0.0847 0.9625 -0.2579
vn 0.0847 -0.9625 -0.2579
vn 0.3675 -0.2115 -0.9057
vn 0.2086 0.8332 -0.5121
vn 0.5335 -0.8102 -0.2430
vn 0.9051 0.1278 -0.4054
vn 0.2067 0.9724 -0.1079
vn 0.2067 -0.9724 -0.1079
vn 0.9053 -0.1014 -0.4126
vn 0.5184 0.8237 -0.2298
vn 0.9235 0.1661 0.3457
vn 0.2067 0.9724 0.1079
vn 0.2067 -0.9724 0.1079
vn 0.9243 -0.1706 0.3413
vn 0.4903 0.8471 0.2052
vn 0.5177 -0.8317 0.2007
vn 0.0847 0.9625 0.2579
vn 0.0847 -0.9625 0.2579
vn 0.3813 -0.1082 0.9181
vn 0.2041 0.7777 0.5946
vn 0.2098 -0.8016 0.5599
vn 0.3587 0.1893 0.9140
vn -0.0847 -0.9625 0.2579
vn -0.2689 -0.1910 0.9440
vn -0.1080 0.8365 0.5373
vn -0.1822 -0.8163 0.5481
vn -0.2341 0.2375 0.9428
vn -0.0847 0.9625 0.2579
vn -0.2067 -0.9724 0.1079
vn -0.8411 -0.3182 0.4374
vn -0.3434 0.9219 0.1793
vn -0.4649 -0.8528 0.2377
vn -0.8492 0.2868 0.4434
vn -0.2067 0.9724 0.1079
vn -0.2067 -0.9724 -0.1079
vn -0.8355 -0.3230 -0.4445
vn -0.3434 0.9219 -0.1793
vn -0.4716 -0.8410 -0.2652
vn -0.8492 0.2868 -0.4434
vn -0.2067 0.9724 -0.1079
vn -0.1960 -0.3111 -0.9299
vn -0.1216 0.8646 -0.4875
vn -0.1415 -0.7062 -0.6937
vn -0.2461 0.2144 -0.9452
vn -0.0847 0.9625 -0.2579
vn -0.0847 -0.9625 -0.2579
vn 0.0000 -1.0000 0.0000
vn 0.9738 -0.0379 0.2242
vn -0.4305 -0.7028 -0.5663
vn -0.0000 -0.8601 0.5101
vn -0.3989 -0.8600 -0.3182
vn -0.1505 -0.9873 -0.0507
vn 0.0222 -0.9987 -0.0461
vn -0.0500 -0.9987 -0.0115
vn -0.0202 -0.9998 0.0045
vn 0.2490 -0.9668 -0.0567
vn 0.3991 -0.8599 0.3182
vn 0.2771 -0.9588 0.0634
vn 0.4971 -0.8603 -0.1132
vn 0.1995 -0.9669 0.1591
vn 0.0000 -0.8597 0.5108
vn 0.1240 -0.9584 0.2572
vn 0.0001 -0.9998 -0.0207
vn 0.0000 -0.9669 0.2552
vn -0.3988 -0.8601 0.3181
vn -0.1234 -0.9587 0.2562
vn -0.0221 -0.9987 -0.0459
vn -0.0163 -0.9998 -0.0128
vn 0.3999 -0.8593 0.3189
vn 0.2239 -0.9583 -0.1775
vn -0.0089 -0.9998 0.0186
vn 0.0000 -0.9987 0.0512
vn -0.1578 -0.9873 -0.0191
vn -0.4987 -0.8593 0.1138
vn 0.2219 -0.8593 -0.4608
vn 0.0008 -0.9590 -0.2835
vn 0.0400 -0.9987 0.0319
vn -0.0887 -0.9959 -0.0203
vn -0.1357 -0.9502 -0.2806
vn 0.5020 -0.8572 -0.1146
vn 0.4847 -0.8682 0.1067
vn 0.2215 -0.8599 -0.4599
vn -0.0398 -0.9987 0.0317
vn 0.0498 -0.9987 -0.0114
vn -0.2447 -0.9498 0.1951
usemtl Material.002
s off
f 42/1/1 2/2/1 7/3/1 8/4/1
f 41/5/2 40/6/2 5/7/2 6/8/2
f 1/9/3 3/10/3 4/11/3
f 19/12/4 42/1/4 8/4/4
f 2/2/5 41/5/5 6/8/5 7/3/5
f 40/6/6 1/9/6 4/11/6 5/7/6
f 8/4/7 7/3/7 12/13/7 13/14/7
f 6/8/8 5/7/8 10/15/8 11/16/8
f 4/11/9 3/17/9 9/18/9
f 19/19/10 8/4/10 13/14/10
f 7/3/11 6/8/11 11/16/11 12/13/11
f 5/7/12 4/11/12 9/18/12 10/15/12
f 11/16/13 10/15/13 15/20/13 16/21/13
f 9/18/14 3/22/14 14/23/14
f 19/24/15 13/14/15 18/25/15
f 12/13/16 11/16/16 16/21/16 17/26/16
f 10/15/17 9/18/17 14/23/17 15/20/17
f 13/14/18 12/13/18 17/26/18 18/25/18
f 14/23/19 3/27/19 20/28/19
f 19/29/20 18/25/20 24/30/20
f 17/26/21 16/21/21 22/31/21 23/32/21
f 15/20/22 14/23/22 20/28/22 21/33/22
f 18/25/23 17/26/23 23/32/23 24/30/23
f 16/21/24 15/20/24 21/33/24 22/31/24
f 19/34/25 24/30/25 29/35/25
f 23/32/26 22/31/26 27/36/26 28/37/26
f 21/33/27 20/28/27 25/38/27 26/39/27
f 24/30/28 23/32/28 28/37/28 29/35/28
f 22/31/29 21/33/29 26/39/29 27/36/29
f 20/28/30 3/40/30 25/38/30
f 19/41/31 29/35/31 34/42/31
f 28/37/32 27/36/32 32/43/32 33/44/32
f 26/39/33 25/38/33 30/45/33 31/46/33
f 29/35/34 28/37/34 33/44/34 34/42/34
f 27/36/35 26/39/35 31/46/35 32/43/35
f 25/38/36 3/47/36 30/45/36
f 19/48/37 34/49/37 39/50/37
f 33/51/38 32/52/38 37/53/38 38/54/38
f 31/55/39 30/56/39 35/57/39 36/58/39
f 34/49/40 33/51/40 38/54/40 39/50/40
f 32/52/41 31/55/41 36/58/41 37/53/41
f 30/56/42 3/59/42 35/57/42
f 38/54/43 37/53/43 41/5/43 2/2/43
f 36/58/44 35/57/44 1/9/44 40/6/44
f 39/50/45 38/54/45 2/2/45 42/1/45
f 37/53/46 36/58/46 40/6/46 41/5/46
f 35/57/47 3/60/47 1/9/47
f 19/61/48 39/50/48 42/1/48
usemtl Material.001
f 43/62/49 63/63/49 49/64/49
f 49/64/49 83/65/49 48/66/49
f 48/66/49 72/67/49 71/68/49 51/69/49
f 51/69/50 71/68/50 47/70/50
f 47/70/51 57/71/51 69/72/51 50/73/51
f 50/73/49 69/72/49 46/74/49
f 46/74/49 68/75/49 45/76/49
f 45/76/49 75/77/49 44/78/49
f 44/78/49 53/79/49 43/62/49
f 53/79/52 44/78/52 81/80/52
f 81/80/53 44/78/53 75/77/53
f 81/80/54 75/77/54 67/81/54 65/82/54 76/83/54
f 76/83/55 65/82/55 77/84/55
f 77/84/49 65/82/49 66/85/49 54/86/49 60/87/49 59/88/49 78/89/49
f 78/89/56 59/88/56 82/90/56
f 82/90/57 59/88/57 58/91/57 73/92/57 80/93/57
f 80/93/58 73/92/58 48/66/58
f 80/93/59 48/66/59 83/65/59
f 80/93/60 83/65/60 52/94/60 82/90/60
f 52/94/61 83/65/61 49/64/61
f 52/94/62 49/64/62 79/95/62
f 79/95/63 49/64/63 63/63/63
f 79/95/64 63/63/64 62/96/64 61/97/64
f 61/97/65 62/96/65 64/98/65 76/83/65 77/84/65
f 64/98/66 62/96/66 43/62/66
f 64/98/67 43/62/67 53/79/67
f 64/98/68 53/79/68 81/80/68 76/83/68
f 61/97/69 77/84/69 78/89/69
f 61/97/70 78/89/70 82/90/70 52/94/70 79/95/70
f 62/96/71 63/63/71 43/62/71
f 73/92/72 58/91/72 70/99/72 72/67/72
f 70/99/73 58/91/73 60/87/73 55/100/73 57/71/73
f 55/100/74 60/87/74 54/86/74
f 55/100/75 54/86/75 74/101/75 68/75/75 56/102/75
f 56/102/76 68/75/76 46/74/76
f 56/102/77 46/74/77 69/72/77
f 56/102/78 69/72/78 57/71/78 55/100/78
f 74/101/79 54/86/79 66/85/79
f 74/101/80 66/85/80 67/81/80 45/76/80
f 74/101/81 45/76/81 68/75/81
f 70/99/82 71/68/82 72/67/82
f 70/99/83 57/71/83 47/70/83 71/68/83
f 73/92/84 72/67/84 48/66/84
f 58/91/85 59/88/85 60/87/85
f 66/85/86 65/82/86 67/81/86
f 67/81/87 75/77/87 45/76/87
