# Blender v2.82 (sub 7) OBJ File: 'Tree (No leaves).blend'
# www.blender.org
mtllib Tree (No leaves).mtl
o Cylinder
v -0.000000 0.000000 -0.480000
v -0.000000 4.234409 -0.480000
v 0.375279 0.000000 -0.299275
v 0.375279 4.234409 -0.299275
v 0.467965 0.000000 0.106810
v 0.467965 4.234409 0.106810
v 0.208264 0.000000 0.432465
v 0.208264 4.234409 0.432465
v -0.208264 0.000000 0.432465
v -0.208264 4.234409 0.432465
v -0.467965 4.234409 0.106810
v -0.375279 0.000000 -0.299275
v -0.375279 4.234409 -0.299275
v -0.000000 0.653730 -0.480000
v 0.375279 0.653730 -0.299275
v 0.467965 0.653730 0.106810
v 0.208264 0.653730 0.432465
v -0.208264 0.653730 0.432465
v -0.467965 0.653730 0.106810
v -0.375279 0.653730 -0.299275
v 0.682299 0.008807 -0.369350
v 0.682299 0.000000 -0.369350
v 0.774985 0.000000 0.036735
v 0.774985 0.008807 0.036735
v 0.162127 0.019018 0.888386
v 0.162127 0.007948 0.888386
v -0.162127 0.007948 0.888386
v -0.162127 0.019018 0.888386
v -0.448053 0.004535 -0.450391
v -0.448053 -0.005004 -0.450391
v -0.072774 -0.005004 -0.631116
v -0.072774 0.004535 -0.631116
v -0.554721 0.000000 -0.064262
v -0.428919 0.653730 -0.064262
v -0.463916 0.000000 0.269638
v -0.338115 0.653730 0.269638
v -0.687689 0.000000 0.330991
v -0.687689 0.003889 0.330991
v -0.729088 0.000000 -0.024464
v -0.729088 0.003889 -0.024464
vt 1.000000 0.663432
vt 1.000000 1.000000
vt 0.857143 1.000000
vt 0.857143 0.663432
vt 0.714286 1.000000
vt 0.714286 0.663432
vt 0.571429 1.000000
vt 0.571429 0.663432
vt 0.428571 1.000000
vt 0.428571 0.663432
vt 0.437640 0.399638
vt 0.250000 0.490000
vt 0.062360 0.399638
vt 0.016017 0.196595
vt 0.145868 0.033767
vt 0.354132 0.033767
vt 0.483983 0.196595
vt 0.285714 1.000000
vt 0.285714 0.663432
vt 0.357143 0.663432
vt 0.142857 0.663432
vt 0.142857 1.000000
vt 0.000000 1.000000
vt 0.000000 0.663432
vt 0.750000 0.490000
vt 0.937640 0.399638
vt 0.983983 0.196595
vt 0.854132 0.033767
vt 0.645868 0.033767
vt 0.580943 0.115181
vt 0.535540 0.282131
vt 0.562360 0.399638
vt 1.000000 0.500000
vt 1.000000 0.500000
vt 1.000000 0.663432
vt 0.225533 0.500000
vt 0.225533 0.663432
vt 0.142857 0.500000
vt 0.580943 0.115181
vt 0.535540 0.282131
vt 0.428571 0.500000
vt 0.428571 0.500000
vt 0.428571 0.663432
vt 0.714286 0.500000
vt 0.571429 0.500000
vt 0.857143 0.500000
vt 0.857143 0.663432
vt 0.857143 0.500000
vt 0.714286 0.663432
vt 0.714286 0.500000
vt 0.937640 0.399638
vt 0.983983 0.196595
vt 0.571429 0.500000
vt 0.571429 0.663432
vt 0.854132 0.033767
vt 0.645868 0.033767
vt 0.142857 0.500000
vt 0.142857 0.663432
vt 0.000000 0.663432
vt 0.000000 0.500000
vt 0.562360 0.399638
vt 0.750000 0.490000
vt 0.357143 0.500000
vt 0.225533 0.663432
vt 0.357143 0.663432
vt 0.357143 0.500000
vt 0.225533 0.500000
vn 0.4339 0.0000 -0.9010
vn 0.9749 0.0000 -0.2225
vn 0.7818 0.0000 0.6235
vn 0.0000 0.0000 1.0000
vn 0.0000 1.0000 -0.0000
vn -0.7818 0.0000 0.6235
vn -0.4339 0.0000 -0.9010
vn 0.0000 -1.0000 0.0000
vn 0.9010 0.0000 -0.4339
vn -0.8926 0.0859 -0.4426
vn -0.9949 0.0000 0.1007
vn -0.2225 0.0000 -0.9749
vn 0.2225 0.0000 0.9749
vn 0.8761 0.4388 -0.2000
vn 0.0000 -0.9998 0.0174
vn 0.9949 0.0000 0.1007
vn 0.0000 0.5834 0.8122
vn 0.0129 -0.9996 0.0269
vn -0.4201 0.2501 -0.8723
vn -0.9010 0.0000 0.4339
vn -0.6441 0.0620 0.7624
vn -0.9749 -0.0000 -0.2225
vn -0.8979 0.4050 0.1722
vn 0.2633 -0.0504 0.9634
vn -0.2214 0.0424 -0.9743
vn -0.9933 0.0000 0.1157
usemtl None
s off
f 14/1/1 2/2/1 4/3/1 15/4/1
f 15/4/2 4/3/2 6/5/2 16/6/2
f 16/6/3 6/5/3 8/7/3 17/8/3
f 17/8/4 8/7/4 10/9/4 18/10/4
f 4/11/5 2/12/5 13/13/5 11/14/5 10/15/5 8/16/5 6/17/5
f 18/10/6 10/9/6 11/18/6 19/19/6 36/20/6
f 20/21/7 13/22/7 2/23/7 14/24/7
f 1/25/8 3/26/8 5/27/8 7/28/8 9/29/8 35/30/8 33/31/8 12/32/8
f 14/1/9 1/33/9 31/34/9 32/35/9
f 33/36/10 34/37/10 20/21/10 12/38/10
f 33/31/8 35/30/8 37/39/8 39/40/8
f 18/10/11 9/41/11 27/42/11 28/43/11
f 5/44/3 16/6/3 17/8/3 7/45/3
f 3/46/12 15/4/12 21/47/12 22/48/12
f 1/33/1 14/1/1 15/4/1 3/46/1
f 22/48/2 21/47/2 24/49/2 23/50/2
f 16/6/13 5/44/13 23/50/13 24/49/13
f 5/27/8 3/26/8 22/51/8 23/52/8
f 15/4/14 16/6/14 24/49/14 21/47/14
f 26/53/4 25/54/4 28/43/4 27/42/4
f 9/29/15 7/28/15 26/55/15 27/56/15
f 7/45/16 17/8/16 25/54/16 26/53/16
f 17/8/17 18/10/17 28/43/17 25/54/17
f 30/57/7 29/58/7 32/59/7 31/60/7
f 1/25/18 12/32/18 30/61/18 31/62/18
f 20/21/19 14/24/19 32/59/19 29/58/19
f 12/38/20 20/21/20 29/58/20 30/57/20
f 9/41/21 18/10/21 36/20/21 35/63/21
f 19/19/22 11/18/22 13/22/22 20/21/22 34/37/22
f 36/20/23 19/19/23 34/37/23 40/64/23 38/65/23
f 35/63/24 36/20/24 38/65/24 37/66/24
f 34/37/25 33/36/25 39/67/25 40/64/25
f 38/65/26 40/64/26 39/67/26 37/66/26
