# Blender v2.82 (sub 7) OBJ File: 'Tree Stump.blend'
# www.blender.org
mtllib Tree Stump.mtl
o Cylinder
v 0.000000 -1.000000 -1.000000
v 0.000000 0.684940 -1.000000
v 0.587785 -1.000000 -0.809017
v 0.587785 0.684940 -0.809017
v 0.951057 -1.000000 -0.309017
v 0.951057 0.684940 -0.309017
v 0.951056 -1.000000 0.309017
v 0.951056 0.684940 0.309017
v 0.587785 -1.000000 0.809017
v 0.587785 0.684940 0.809017
v -0.000000 -1.000000 1.000000
v -0.000000 0.684940 1.000000
v -0.587785 -1.000000 0.809017
v -0.587785 0.684940 0.809017
v -0.951056 -1.000000 0.309017
v -0.951056 0.684940 0.309017
v -0.951056 -1.000000 -0.309017
v -0.951056 0.684940 -0.309017
v -0.587785 -1.000000 -0.809017
v -0.587785 0.684940 -0.809017
v 0.000000 -0.507937 -1.000000
v 0.587785 -0.507937 -0.809017
v 0.951057 -0.507937 -0.309017
v 0.587785 -0.507937 0.809017
v -0.000000 -0.507937 1.000000
v -0.587785 -0.507937 0.809017
v -0.951056 -0.507937 0.309017
v -0.951056 -0.507937 -0.309017
v -0.587785 -0.507937 -0.809017
v 0.000000 -0.072698 -1.000000
v 0.587785 -0.072698 -0.809017
v 0.951057 -0.072698 -0.309017
v 0.951056 -0.072698 0.309017
v 0.587785 -0.072698 0.809017
v -0.000000 -0.072698 1.000000
v -0.587785 -0.072698 0.809017
v -0.951056 -0.072698 0.309017
v -0.951056 -0.072698 -0.309017
v -0.587785 -0.072698 -0.809017
v 0.499014 -0.964753 1.505011
v 0.499014 -0.979907 1.505011
v 0.480912 -0.979907 1.510892
v 0.480912 -0.964753 1.510892
v 0.499014 -0.951349 1.505011
v 0.480912 -0.951349 1.510892
v 1.345611 -0.964753 -0.981956
v 1.345611 -0.970309 -0.981956
v 1.349712 -0.970309 -0.976311
v 1.349712 -0.964753 -0.976311
v 1.345611 -0.959839 -0.981956
v 1.349712 -0.959839 -0.976311
v -0.570015 -1.019505 -1.272009
v -0.570015 -1.024370 -1.272009
v -0.564203 -1.024370 -1.273897
v -0.564203 -1.019505 -1.273897
v -0.570015 -1.015202 -1.272009
v -0.564203 -1.015202 -1.273897
v -1.806290 -0.962552 0.010808
v -1.806290 -0.979763 0.010808
v -1.806290 -0.979763 -0.010808
v -1.806290 -0.962552 -0.010808
v -1.806290 -0.947329 0.010808
v -1.806290 -0.947329 -0.010808
v 0.951056 -1.000000 0.000000
v 0.951056 0.684940 0.000000
v 0.951056 -0.507937 0.000000
v 0.951056 -0.072698 0.000000
v 0.821585 -1.000000 0.487219
v 0.821585 0.684940 0.487219
v 0.821585 -0.507937 0.487219
v 0.821585 -0.072698 0.487219
v 1.145465 -0.985829 0.536777
v 1.145465 -0.985829 0.546779
v 1.145465 -0.969902 0.546779
v 1.145465 -0.955814 0.546779
v 1.145465 -0.969902 0.536777
v 1.145465 -0.955814 0.536777
v 1.141275 -0.985829 0.552547
v 1.141275 -0.969902 0.552547
v 1.141275 -0.955814 0.552547
v -0.000000 -0.712841 -1.000000
v 0.587785 -0.712841 -0.809017
v 0.951057 -0.712841 -0.309017
v 0.951056 -0.712841 0.000000
v 0.951056 -0.712841 0.309017
v 0.821585 -0.712841 0.487219
v 0.587785 -0.712841 0.809017
v -0.000000 -0.712841 1.000000
v -0.587785 -0.712841 0.809017
v -0.951056 -0.712841 0.309017
v -0.951056 -0.712841 -0.309017
v -0.587785 -0.712841 -0.809017
vt 1.000000 0.760564
vt 1.000000 1.000000
vt 0.900000 1.000000
vt 0.900000 0.760564
vt 0.800000 1.000000
vt 0.800000 0.760564
vt 0.750000 0.760564
vt 0.750000 1.000000
vt 0.700000 1.000000
vt 0.700000 0.760564
vt 0.664360 0.760564
vt 0.664360 1.000000
vt 0.600000 1.000000
vt 0.600000 0.760564
vt 0.500000 1.000000
vt 0.500000 0.760564
vt 0.400000 1.000000
vt 0.400000 0.760564
vt 0.300000 1.000000
vt 0.300000 0.760564
vt 0.200000 1.000000
vt 0.200000 0.760564
vt 0.391068 0.444164
vt 0.250000 0.490000
vt 0.108932 0.444164
vt 0.021746 0.324164
vt 0.021746 0.175836
vt 0.108932 0.055836
vt 0.250000 0.010000
vt 0.391068 0.055836
vt 0.447180 0.133067
vt 0.478254 0.175836
vt 0.478254 0.250000
vt 0.478254 0.324164
vt 0.100000 1.000000
vt 0.100000 0.760564
vt -0.000000 1.000000
vt -0.000000 0.760564
vt 0.891068 0.444164
vt 0.978254 0.324164
vt 0.978254 0.324164
vt 0.891068 0.444164
vt 0.750000 0.490000
vt 0.608932 0.444164
vt 0.608932 0.444164
vt 0.750000 0.490000
vt 0.200000 0.500000
vt 0.200000 0.623016
vt 0.100000 0.623016
vt 0.100000 0.500000
vt 0.200000 0.500000
vt 0.200000 0.623016
vt 0.400000 0.500000
vt 0.400000 0.623016
vt 0.300000 0.623016
vt 0.300000 0.500000
vt 0.500000 0.500000
vt 0.500000 0.623016
vt 0.500000 0.623016
vt 0.500000 0.760564
vt 0.664360 0.500000
vt 0.664360 0.623016
vt 0.600000 0.623016
vt 0.600000 0.500000
vt 0.664360 0.760564
vt 0.700000 0.760564
vt 0.891068 0.444164
vt 0.978254 0.324164
vt 1.000000 0.500000
vt 1.000000 0.623016
vt 0.900000 0.623016
vt 0.900000 0.500000
vt 1.000000 0.623016
vt 1.000000 0.760564
vt 0.300000 0.760564
vt 0.300000 0.623016
vt 0.500000 0.500000
vt 0.664360 0.500000
vt 0.664360 0.623016
vt 0.800000 0.623016
vt 0.800000 0.500000
vt 0.800000 0.500000
vt 0.800000 0.623016
vt 0.600000 0.500000
vt 0.600000 0.623016
vt 0.600000 0.760564
vt 0.750000 0.010000
vt 0.891068 0.055836
vt 0.891068 0.055836
vt 0.750000 0.010000
vt 0.900000 0.500000
vt 0.900000 0.623016
vt 0.900000 0.760564
vt 0.800000 0.760564
vt 0.100000 0.500000
vt 0.100000 0.623016
vt -0.000000 0.623016
vt -0.000000 0.500000
vt 0.100000 0.760564
vt -0.000000 0.760564
vt 1.000000 0.500000
vt 0.300000 0.500000
vt 0.200000 0.760564
vt 0.521746 0.324164
vt 0.521746 0.175836
vt 0.521746 0.175836
vt 0.521746 0.324164
vt 0.750000 0.623016
vt 0.750000 0.500000
vt 0.750000 0.623016
vt 0.750000 0.500000
vt 0.947180 0.133067
vt 0.978254 0.175836
vt 0.978254 0.175836
vt 0.947180 0.133067
vt 0.700000 0.623016
vt 0.700000 0.500000
vt 0.750000 0.760564
vt 0.978254 0.250000
vt 0.978254 0.250000
vt 0.750000 0.490000
vt 0.978254 0.250000
vt 0.978254 0.175836
vt 0.947180 0.133067
vt 0.891068 0.055836
vt 0.750000 0.010000
vt 0.608932 0.055836
vt 0.521746 0.175836
vt 0.521746 0.324164
vt 0.608932 0.444164
vt 0.100000 0.500000
vt 0.200000 0.500000
vt 0.300000 0.500000
vt 0.400000 0.500000
vt 0.750000 0.500000
vt 0.800000 0.500000
vt 0.500000 0.500000
vt 0.600000 0.500000
vt 0.664360 0.500000
vt 0.900000 0.500000
vt 1.000000 0.500000
vn 0.3090 0.0000 -0.9511
vn 0.8090 0.0000 -0.5878
vn 1.0000 0.0000 0.0000
vn 0.8090 0.0000 0.5878
vn 0.3090 0.0000 0.9511
vn -0.3090 0.0000 0.9511
vn -0.8090 0.0000 0.5878
vn -1.0000 0.0000 0.0000
vn 0.0000 1.0000 -0.0000
vn -0.8090 0.0000 -0.5878
vn -0.3090 0.0000 -0.9511
vn 0.0173 -0.9984 0.0532
vn -0.3292 0.0000 -0.9442
vn -0.7281 0.0000 0.6854
vn 0.7668 0.3188 0.5571
vn 0.0336 -0.9991 -0.0244
vn 0.4367 0.0000 -0.8996
vn -0.3292 0.0000 0.9442
vn -0.2002 0.0000 0.9798
vn 0.8585 0.0000 0.5129
vn 0.0098 -0.9995 0.0301
vn 0.9920 0.0000 0.1265
vn 0.2505 0.5854 0.7710
vn 0.6300 0.6274 -0.4577
vn -0.2225 0.0000 -0.9749
vn -0.9993 0.0000 -0.0384
vn -0.2806 0.4189 -0.8636
vn -0.0237 -0.9997 0.0000
vn -0.7150 0.6991 0.0000
vn 0.9402 0.0000 -0.3405
vn 0.0386 -0.9989 0.0280
vn 0.0727 -0.9974 0.0000
vn 0.9766 0.2150 0.0000
vn 0.0000 -1.0000 0.0000
usemtl None
s off
f 30/1/1 2/2/1 4/3/1 31/4/1
f 31/4/2 4/3/2 6/5/2 32/6/2
f 67/7/3 65/8/3 8/9/3 33/10/3
f 71/11/4 69/12/4 10/13/4 34/14/4
f 34/14/5 10/13/5 12/15/5 35/16/5
f 35/16/6 12/15/6 14/17/6 36/18/6
f 36/18/7 14/17/7 16/19/7 37/20/7
f 37/20/8 16/19/8 18/21/8 38/22/8
f 4/23/9 2/24/9 20/25/9 18/26/9 16/27/9 14/28/9 12/29/9 10/30/9 69/31/9 8/32/9 65/33/9 6/34/9
f 38/22/10 18/21/10 20/35/10 39/36/10
f 39/36/11 20/35/11 2/37/11 30/38/11
f 3/39/7 5/40/7 83/41/7 82/42/7
f 1/43/12 19/44/12 53/45/12 54/46/12
f 17/47/10 28/48/10 29/49/10 19/50/10
f 28/48/13 17/47/13 60/51/13 61/52/13
f 13/53/7 26/54/7 27/55/7 15/56/7
f 11/57/6 25/58/6 26/54/6 13/53/6
f 35/16/14 25/58/14 43/59/14 45/60/14
f 68/61/4 70/62/4 24/63/4 9/64/4
f 33/10/15 71/11/15 80/65/15 75/66/15
f 5/40/16 3/39/16 47/67/16 48/68/16
f 1/69/1 21/70/1 22/71/1 3/72/1
f 30/1/17 21/70/17 55/73/17 57/74/17
f 28/48/10 38/22/10 39/36/10 29/49/10
f 27/55/18 37/20/18 62/75/18 58/76/18
f 26/54/7 36/18/7 37/20/7 27/55/7
f 25/58/6 35/16/6 36/18/6 26/54/6
f 25/58/14 11/57/14 42/77/14 43/59/14
f 70/62/4 71/11/4 34/14/4 24/63/4
f 70/62/19 68/61/19 78/78/19 79/79/19
f 23/80/20 5/81/20 48/82/20 49/83/20
f 21/70/1 30/1/1 31/4/1 22/71/1
f 41/84/5 40/85/5 43/59/5 42/77/5
f 40/85/5 44/86/5 45/60/5 43/59/5
f 11/87/21 9/88/21 41/89/21 42/90/21
f 9/64/22 24/63/22 40/85/22 41/84/22
f 24/63/22 34/14/22 44/86/22 40/85/22
f 34/14/23 35/16/23 45/60/23 44/86/23
f 47/91/2 46/92/2 49/83/2 48/82/2
f 46/92/2 50/93/2 51/94/2 49/83/2
f 31/4/24 32/6/24 51/94/24 50/93/24
f 22/71/25 31/4/25 50/93/25 46/92/25
f 3/72/25 22/71/25 46/92/25 47/91/25
f 32/6/20 23/80/20 49/83/20 51/94/20
f 53/95/11 52/96/11 55/97/11 54/98/11
f 52/96/11 56/99/11 57/100/11 55/97/11
f 29/49/26 39/36/26 56/99/26 52/96/26
f 39/36/27 30/38/27 57/100/27 56/99/27
f 19/50/26 29/49/26 52/96/26 53/95/26
f 21/70/17 1/69/17 54/101/17 55/73/17
f 59/102/8 58/76/8 61/52/8 60/51/8
f 58/76/8 62/75/8 63/103/8 61/52/8
f 17/104/28 15/105/28 59/106/28 60/107/28
f 37/20/29 38/22/29 63/103/29 62/75/29
f 38/22/13 28/48/13 61/52/13 63/103/13
f 15/56/18 27/55/18 58/76/18 59/102/18
f 23/80/3 32/6/3 67/7/3 66/108/3
f 5/81/3 23/80/3 66/108/3 64/109/3
f 32/6/3 6/5/3 65/8/3 67/7/3
f 64/109/30 66/108/30 76/110/30 72/111/30
f 68/112/31 7/113/31 73/114/31 78/115/31
f 33/10/4 8/9/4 69/12/4 71/11/4
f 72/111/3 76/110/3 74/116/3 73/117/3
f 76/110/3 77/118/3 75/66/3 74/116/3
f 74/116/4 75/66/4 80/65/4 79/79/4
f 73/117/4 74/116/4 79/79/4 78/78/4
f 7/113/32 64/119/32 72/120/32 73/114/32
f 67/7/33 33/10/33 75/66/33 77/118/33
f 66/108/30 67/7/30 77/118/30 76/110/30
f 71/11/19 70/62/19 79/79/19 80/65/19
f 81/121/34 82/42/34 83/41/34 84/122/34 85/123/34 86/124/34 87/125/34 88/126/34 89/127/34 90/128/34 91/129/34 92/130/34
f 19/44/5 1/43/5 81/121/5 92/130/5
f 17/47/4 19/50/4 92/131/4 91/132/4
f 15/105/3 17/104/3 91/129/3 90/128/3
f 13/53/2 15/56/2 90/133/2 89/134/2
f 5/81/8 64/109/8 84/135/8 83/136/8
f 11/57/1 13/53/1 89/134/1 88/137/1
f 7/113/10 68/112/10 86/124/10 85/123/10
f 9/88/11 11/87/11 88/126/11 87/125/11
f 68/61/10 9/64/10 87/138/10 86/139/10
f 1/69/6 3/72/6 82/140/6 81/141/6
f 64/119/8 7/113/8 85/123/8 84/122/8
